<svg xmlns="http://www.w3.org/2000/svg" width="256" height="256">
  <path fill="#F2F2F2" d="M0 0h256v256H0z"/>
  <circle cx="109.159" cy="66.71" r="20.209" fill="none" stroke="#C6C6C5" stroke-width="4" stroke-miterlimit="10"/>
  <circle cx="109.159" cy="186.71" r="20.209" fill="none" stroke="#C6C6C5" stroke-width="4" stroke-miterlimit="10"/>
  <path fill="#C6C6C5" d="M145.227 142.093h89.783v90h-89.783z"/>
  <path fill="#FFF" d="M160.096 170.717c-2.985 4.008-5.152 9.323-5.152 16.726 0 7.278 2.249 12.513 5.152 16.603h-2.821c-2.577-3.395-5.357-8.629-5.357-16.603.041-8.057 2.78-13.291 5.357-16.726h2.821zm2.291 17.707c-.04-2.413 1.923-4.294 4.294-4.294 2.372 0 4.294 1.881 4.294 4.253 0 2.412-1.881 4.294-4.294 4.294-2.371 0-4.294-1.841-4.294-4.253zm35.908 9.323c-1.514 1.022-4.458 1.8-7.238 1.8-3.967 0-8.343-1.555-8.343-6.012 0-2.453 2.004-4.498 4.907-4.948v-.204c-2.617-.572-3.926-2.209-3.926-4.172 0-2.617 2.617-5.356 7.893-5.356 2.576 0 4.58.531 6.012 1.513l-.777 2.372c-.818-.531-2.944-1.227-4.948-1.227-2.739 0-4.58 1.145-4.58 2.944 0 1.963 2.413 2.821 5.521 2.821h2.372v2.576h-2.494c-3.558 0-6.216.981-6.216 3.354 0 2.331 2.453 3.599 5.356 3.599 2.168 0 4.621-.818 5.808-1.513l.653 2.453zm10.961-9.323c-.04-2.413 1.923-4.294 4.294-4.294 2.372 0 4.294 1.881 4.294 4.253 0 2.412-1.881 4.294-4.294 4.294-2.371 0-4.294-1.841-4.294-4.253zm10.881 15.621c2.903-4.049 5.152-9.365 5.152-16.726 0-7.32-2.209-12.555-5.152-16.603h2.78c2.617 3.354 5.357 8.588 5.357 16.644 0 8.015-2.74 13.208-5.357 16.685h-2.78z"/>
  <path fill="#C6C6C5" d="M145.453 22.445h89.785v90h-89.785z"/>
  <path fill="#FFF" d="M157.153 55.074c-2.255 3.027-3.892 7.042-3.892 12.632 0 5.497 1.699 9.45 3.892 12.539h-2.131c-1.946-2.563-4.046-6.517-4.046-12.539.031-6.084 2.1-10.037 4.046-12.632h2.131zm2.13 14.948c-.124-3.089 1.544-4.664 3.675-4.664 1.297 0 2.285.401 4.354 1.39 1.575.742 2.718 1.298 3.86 1.298 1.112 0 1.637-.896 1.668-2.595h1.853c.155 3.459-1.637 4.664-3.551 4.664-1.235 0-2.348-.371-4.479-1.359-1.451-.71-2.594-1.358-3.706-1.358s-1.791.771-1.853 2.625h-1.821zm19.299-14.577c.186 1.204.957 2.131 2.224 2.131 1.451 0 2.131-1.112 2.224-2.131h1.605c0 2.285-1.513 3.829-3.829 3.829-2.718 0-3.83-1.915-3.83-3.829h1.606zm15.935 3.922c0 2.502-2.008 4.139-4.139 4.139-2.409 0-4.046-1.822-4.046-3.984-.031-2.378 1.822-4.169 4.107-4.169 2.534 0 4.078 1.915 4.078 4.014zm-6.517.154c0 1.421 1.05 2.533 2.409 2.533 1.39 0 2.439-1.144 2.439-2.656 0-1.143-.68-2.595-2.439-2.595-1.606.001-2.409 1.39-2.409 2.718zm9.665-4.076c.185 1.204.957 2.131 2.224 2.131 1.451 0 2.131-1.112 2.224-2.131h1.605c0 2.285-1.513 3.829-3.829 3.829-2.718 0-3.83-1.915-3.83-3.829h1.606zm7.472 24.8c2.193-3.058 3.892-7.073 3.892-12.632 0-5.528-1.667-9.481-3.892-12.539h2.101c1.977 2.533 4.046 6.486 4.046 12.57 0 6.053-2.069 9.975-4.046 12.601h-2.101zm9.666-10.223c-.124-3.089 1.544-4.664 3.675-4.664 1.297 0 2.285.401 4.354 1.39 1.575.742 2.718 1.298 3.86 1.298 1.112 0 1.637-.896 1.668-2.595h1.853c.155 3.459-1.637 4.664-3.551 4.664-1.235 0-2.348-.371-4.479-1.359-1.451-.71-2.594-1.358-3.706-1.358s-1.791.771-1.853 2.625h-1.821z"/>
  <path fill="#1F8EC0" d="M119 67c0 5.522-4.478 10-10 10s-10-4.478-10-10 4.478-10 10-10 10 4.478 10 10z"/>
</svg>
